<?xml version="1.0" encoding="UTF-8" standalone="no"?>
<!DOCTYPE svg PUBLIC "-//W3C//DTD SVG 1.1//EN" "http://www.w3.org/Graphics/SVG/1.1/DTD/svg11.dtd">
<svg width="100%" height="100%" viewBox="0 0 7750 2100" version="1.1" xmlns="http://www.w3.org/2000/svg" xmlns:xlink="http://www.w3.org/1999/xlink" xml:space="preserve" xmlns:serif="http://www.serif.com/" style="fill-rule:evenodd;clip-rule:evenodd;stroke-linecap:round;stroke-linejoin:round;stroke-miterlimit:1.5;">
    <g transform="matrix(1,0,0,1,55,40)">
        <g id="Background" transform="matrix(2.13127,0,0,2.5726,-343.448,-751.768)">
            <ellipse cx="630.35" cy="680.934" rx="464.981" ry="385.214" style="stroke:white;stroke-opacity:0;stroke-width:2.82px;"/>
        </g>
        <path id="Top" d="M215.81,715.103C332.314,395.607 637.885,167.315 996.109,167.315C1454.61,167.315 1826.85,541.3 1826.85,1001.95C1826.85,1361.85 1599.62,1668.85 1281.61,1785.9C1492.91,1647.74 1632.71,1408.41 1632.71,1136.54C1632.71,709.26 1287.43,362.367 862.146,362.367C591.538,362.367 353.323,502.816 215.81,715.103Z" style="fill:rgb(26,26,26);"/>
        <path id="Sides" d="M1509.63,1043.83C1513.99,1074.46 1516.24,1105.76 1516.24,1137.59C1516.24,1465.01 1277.77,1736.91 965.916,1787.4C1136.26,1722.8 1268.71,1580.32 1320.15,1403.31C1426.46,1316.86 1497.85,1188.76 1509.63,1043.83ZM596.618,676.39C420.43,728.071 278.618,861.141 214.318,1032.28C264.573,718.966 535.208,479.379 861.1,479.379C892.775,479.379 923.927,481.643 954.423,486.019C810.169,497.847 682.669,569.571 596.618,676.39Z" style="fill:rgb(72,72,72);"/>
        <path id="Bottom" d="M520.596,805.145C495.857,865.657 482.219,931.874 482.219,1001.26C482.219,1286.59 712.789,1518.24 996.786,1518.24C1065.85,1518.24 1131.76,1504.54 1191.99,1479.68C1107.7,1632.44 945.579,1735.92 759.594,1735.92C486.929,1735.92 265.559,1513.51 265.559,1239.57C265.559,1052.71 368.554,889.834 520.596,805.145Z" style="fill:rgb(164,164,164);"/>
        <path id="Center" d="M624.139,763.555C667.06,751.28 712.367,744.707 759.191,744.707C1031.26,744.707 1252.15,966.628 1252.15,1239.97C1252.15,1287.02 1245.61,1332.54 1233.39,1375.66C1164.61,1420.25 1082.7,1446.14 994.822,1446.14C751.518,1446.14 553.985,1247.68 553.985,1003.24C553.985,914.945 579.756,832.651 624.139,763.555ZM723.642,654.129C798.431,595.378 892.586,560.336 994.822,560.336C1238.13,560.336 1435.66,758.794 1435.66,1003.24C1435.66,1105.95 1400.78,1200.55 1342.3,1275.69C1343.05,1263.53 1343.43,1251.3 1343.43,1238.97C1343.43,915.563 1082.09,652.995 760.186,652.995C747.922,652.995 735.745,653.376 723.642,654.129Z" style="fill:rgb(208,208,208);"/>
    </g>
    <g transform="matrix(2.18076,0,0,2.18076,2053.13,475.032)">
        <path d="M102.461,295.523L190.94,295.497C190.94,295.497 318.894,307.448 322.761,161.211C326.135,33.578 196.151,38.283 196.151,38.283L35.462,37.637L99.875,96.28L195.307,97.115C195.307,97.115 253.662,105.365 253.907,158.646C254.23,228.779 197.236,235.415 197.236,235.415L100.41,237.095L35.955,491.148L101.212,491.879L102.461,295.523Z" style="fill:rgb(20,20,20);"/>
        <path d="M397.241,195.721L336.899,493.188L398.881,493.188L397.241,195.721ZM396.516,73.948L385.653,138.441C385.653,138.441 381.578,140.46 375.67,140.46C355.512,140.46 339.146,124.094 339.146,103.936C339.146,83.777 355.512,67.411 375.67,67.411C383.417,67.411 390.604,69.828 396.516,73.948ZM396.516,73.948C405.991,80.55 412.195,91.524 412.195,103.936C412.195,113.957 397.804,132.637 397.804,132.637L396.516,73.948L396.516,73.948L396.516,73.947L396.516,73.948Z"/>
        <path d="M579.118,384.604L672.092,492.17L747.136,490.806L615.949,340.233L737.384,193.936L663.072,193.881L578.044,294.909L489.792,194.254L542.351,338.582L418.291,492.654L491.076,491.655L579.118,384.604Z"/>
        <g transform="matrix(1.23509,0,0,1.05278,-233.298,-18.2624)">
            <path d="M925.198,206.304C982.851,240.125 976.958,345.267 976.958,345.267L807.51,347.261C807.51,347.261 823.752,409.811 845.553,419.202C908.074,446.136 971.778,403.143 971.778,403.143L971.856,451.137C971.856,451.137 931.787,483.706 876.755,484.23C808.983,484.876 755.318,419.683 755.318,338.261C755.318,333.711 758.207,311.212 758.207,311.212L927.75,306.539C927.75,306.539 927.043,288.78 917.728,272.609C908.449,256.501 890.561,241.982 890.561,241.982L789.713,228.991C789.713,228.991 847.271,160.59 925.198,206.304Z"/>
        </g>
        <path d="M1038.24,40.721L977.899,493.188L1039.88,493.188L1038.24,40.721Z"/>
        <path d="M1481.23,268.756C1484.46,55.707 1271.23,37.79 1271.23,37.79L1061.6,36.196L1123.07,95.771L1269.38,97.981C1269.38,97.981 1415.54,112.701 1412.28,256.664C1408.46,425.225 1258.79,433.11 1258.79,433.11L1123.79,434.71L1065.6,490.415L1266.61,491.289C1266.61,491.289 1478.37,456.776 1481.23,268.756Z" style="fill:rgb(20,20,20);"/>
        <path d="M1755.61,321.075L1804.9,362.398C1802.76,374.908 1799.02,387.348 1793.57,399.452C1758.9,476.495 1668.2,510.893 1591.15,476.219C1570.98,467.138 1553.73,454.214 1539.87,438.691L1596.89,423.339C1596.89,423.339 1603.2,426.519 1611.78,430.383C1663.53,453.671 1724.45,430.568 1747.74,378.823C1756.19,360.034 1758.53,340.036 1755.61,321.075ZM1518.61,408.049C1497.4,367.766 1494.28,318.486 1514.39,273.801C1549.06,196.758 1639.76,162.36 1716.81,197.034C1767.72,219.947 1800.01,267.324 1806.05,319.051L1745.75,290.306C1735.52,269.991 1718.52,252.924 1696.18,242.871C1644.43,219.582 1583.51,242.685 1560.22,294.431C1541.79,335.382 1575.58,404.488 1575.58,404.488L1518.61,408.049Z"/>
        <path d="M1910.98,239.763L1911.78,239.763L2006.85,241.421L2005.28,188.102L1911.78,187.767L1911.78,123.38L1799.49,239.763L1910.66,239.763L1851.13,403.681C1851.13,403.681 1858.31,466.657 1899.04,481.827C1954.62,502.528 2022.42,472.527 2022.42,472.527L2020.78,422.532C2020.78,422.532 1941.56,441.398 1931.99,433.033C1924.38,426.37 1914.96,409.498 1914.96,409.498L1910.98,239.763Z"/>
        <g transform="matrix(1.23509,0,0,1.05278,1087.34,-18.2624)">
            <path d="M925.198,206.304C982.851,240.125 976.958,345.267 976.958,345.267L807.51,347.261C807.51,347.261 823.752,409.811 845.553,419.202C908.074,446.136 971.778,403.143 971.778,403.143L971.856,451.137C971.856,451.137 931.787,483.706 876.755,484.23C808.983,484.876 755.318,419.683 755.318,338.261C755.318,333.711 758.207,311.212 758.207,311.212L927.75,306.539C927.75,306.539 927.043,288.78 917.728,272.609C908.449,256.501 890.561,241.982 890.561,241.982L789.713,228.991C789.713,228.991 847.271,160.59 925.198,206.304Z"/>
        </g>
        <g transform="matrix(0.773751,0,0,0.773751,-3128.53,-703.571)">
            <path d="M7312.84,1481.07C7312.84,1481.07 7257.32,1479.17 7224.56,1479.74C7214.54,1479.92 7124.11,1481.87 7125.21,1354.63C7126.1,1250.52 7210.31,1235.19 7225.1,1235.34C7263.33,1235.73 7314.1,1249.96 7314.1,1249.96L7383.66,1531.07L7384.99,985.764L7310.75,985.623L7308.32,1178.85C7308.32,1178.85 7266.7,1167.54 7227.83,1165.49C7175.67,1162.74 7053.38,1169.1 7046.53,1351.1C7039.98,1524.91 7191.68,1540.66 7209.95,1540.83C7270.15,1541.4 7380.56,1540.83 7380.56,1540.83L7312.84,1481.07Z" style="stroke:white;stroke-opacity:0;stroke-width:3.95px;"/>
        </g>
    </g>
</svg>
